<svg width="20" height="21" viewBox="0 0 20 21" fill="none" xmlns="http://www.w3.org/2000/svg">
<path d="M13.1394 16.5617C13.1394 15.7247 13.8169 15.06 14.6412 15.06C15.4507 15.06 16.1255 15.7311 16.1429 16.567C16.1401 17.4015 15.4638 18.0635 14.6412 18.0635C13.8042 18.0635 13.1394 17.386 13.1394 16.5617Z" stroke="currentColor" stroke-width="1.2" stroke-linecap="round" stroke-linejoin="round"/>
<path d="M4.85261 4.50456C4.89648 4.79847 5.14887 5.01599 5.44604 5.01599H18.1566C18.1573 5.01612 18.1581 5.01627 18.1589 5.01642L18.1626 5.0171C18.1725 5.01891 18.1947 5.02302 18.2145 5.02607C18.2237 5.02749 18.2366 5.02937 18.2522 5.03113C18.3559 5.06031 18.4134 5.16129 18.3972 5.25183C18.3971 5.25241 18.3969 5.25298 18.3968 5.25356L17.0852 11.8114C16.9197 12.5696 16.2509 13.1122 15.49 13.1122H7.08299C6.29081 13.1122 5.61198 12.5234 5.49383 11.7443C5.49378 11.744 5.49372 11.7436 5.49367 11.7432L4.24104 3.21727C4.23954 3.20707 4.23778 3.19692 4.23576 3.18681C4.17244 2.87019 3.89374 2.5226 3.44532 2.5226H1.80837C1.69514 2.5226 1.6 2.42746 1.6 2.31423C1.6 2.201 1.69514 2.10586 1.80837 2.10586H3.44532C4.05878 2.10586 4.56928 2.55516 4.64945 3.14304L4.6494 3.14305L4.65052 3.15054L4.85261 4.50456Z" stroke="currentColor" stroke-width="1.2" stroke-linecap="round" stroke-linejoin="round"/>
<path d="M8.88823 16.4825L8.88815 16.4825L8.88867 16.4922C8.93089 17.2944 8.29832 17.992 7.47007 18.0433H7.4467C6.66306 18.0433 6.01403 17.4147 5.98498 16.6211C5.95656 15.8055 6.58078 15.1116 7.42168 15.06C8.20612 15.0682 8.85983 15.7014 8.88823 16.4825Z" stroke="currentColor" stroke-width="1.2" stroke-linecap="round" stroke-linejoin="round"/>
</svg>
