<svg width="20" height="21" viewBox="0 0 20 21" fill="none" xmlns="http://www.w3.org/2000/svg">
<path d="M9.54691 3.8948C9.66087 4.02607 9.82616 4.10146 10 4.10146C10.1738 4.10146 10.3391 4.02607 10.4531 3.8948C10.7547 3.54735 11.108 3.24212 11.5 2.9864C12.3676 2.42048 13.4184 2.10146 14.5 2.10146C17.2596 2.10146 19.4 4.21752 19.4 6.89656C19.4 7.87203 19.1681 8.8075 18.7593 9.71246L18.7592 9.71264C17.4703 12.5685 14.4878 15.019 11.7751 17.2329L11.769 17.2379C11.1532 17.7404 10.5527 18.2306 10 18.7054C9.44735 18.2306 8.84676 17.7404 8.23097 17.2379L8.22486 17.2329C5.51214 15.019 2.52963 12.5685 1.24071 9.71249L1.24063 9.71231C0.831868 8.8074 0.6 7.87198 0.6 6.89656C0.6 4.21752 2.74043 2.10146 5.5 2.10146C6.5816 2.10146 7.63243 2.42048 8.50001 2.9864C8.89202 3.24212 9.24529 3.54735 9.54691 3.8948Z" stroke="currentColor" stroke-width="1.2" stroke-linecap="round" stroke-linejoin="round"/>
</svg>
